<!-- icon666.com - MILLIONS vector ICONS FREE --><svg viewBox="0 -42 461.59629 461" xmlns="http://www.w3.org/2000/svg"><path d="m18.105469 219.644531 112.46875 10.085938c.039062.445312.082031.894531.117187 1.335937l.011719.113282c.097656.980468.171875 1.957031.25 2.96875.191406 2.253906.359375 4.488281.515625 6.699218l.015625.257813c.066406.914062.125 1.828125.183594 2.792969.066406 1.027343.136719 2.058593.183593 3.074218l.007813.132813c.035156.550781.066406 1.105469.09375 1.65625l.050781.898437c.128906 2.4375.234375 4.863282.324219 7.273438.070313 1.691406.121094 3.355468.167969 5.019531.019531.683594.039062 1.351563.050781 2.023437l.003906.113282c.015625.503906.023438 1.007812.03125 1.511718l.003907.207032c.027343 1.144531.050781 2.277344.058593 3.433594l.019531 2.1875c.070313 10.453124-.238281 19.730468-.914062 27.5625l-.566406 6.511718c-.375 4.082032-.121094 8.160156.6875 12.105469-5.394532 2.523437-11.5 3.316406-17.625 2.117187-5.542969-1.085937-10.65625-3.875-14.621094-7.902343-5.992188-6.085938-8.875-14.167969-8.09375-22.652344l.558594-6.527344c.367187-4.261719.746094-7.351562 1.078125-10.078125.828125-6.769531 1.371093-11.226562.621093-23.878906-.214843-3.628906-3.359374-6.382812-6.980468-6.105469-3.539063.269531-6.207032 3.335938-5.992188 6.878907.6875 11.398437.234375 15.089843-.550781 21.53125-.347656 2.832031-.738281 6.046874-1.125 10.539062l-.558594 6.488281c-1.066406 11.578125 2.8125 23.148438 10.648438 31.734375 1.9375 2.125 4.078125 4.023438 6.375 5.679688.8125 19.433594 14.15625 34.574218 30.601562 34.574218h26.386719c5.367188 10.519532 15.078125 17.46875 26.21875 17.46875h31.554688c4 0 7.246093-3.242187 7.246093-7.246093 0-2.90625-1.777343-5.566407-4.519531-6.53125-7.550781-2.652344-13.132812-11.792969-13.132812-22.632813v-.746094c6.738281-5.980468 11.390624-14.054687 13.152343-22.882812l.117188-.570312c3.710937-18.640626 5.753906-45.90625 5.605469-74.820313l-.003907-.246094c-.007812-1.664062-.019531-3.335937-.050781-4.980469-.054688-4.382812-.175781-8.925781-.351562-13.5-.050782-1.335937-.101563-2.671874-.171876-3.996093-.03125-.863281-.074218-1.722657-.121093-2.511719-.042969-.855469-.082031-1.710938-.132813-2.507812-.050781-.96875-.101562-1.933594-.164062-2.867188-.078125-1.296875-.167969-2.585938-.257813-3.871094-.015625-.253906-.035156-.515625-.058593-.769531-.101563-1.484375-.210938-2.960937-.328126-4.371094-.023437-.316406-.046874-.621093-.078124-.925781-.070313-.933594-.152344-1.863281-.234376-2.695312-.105468-1.230469-.21875-2.449219-.34375-3.660157l-.015624-.15625c-.011719-.125-.023438-.253906-.039063-.378906-.351563-3.535156-.746094-6.9375-1.175781-10.207031 16.667968 5.769531 51.34375 15.710937 92.367187 15.710937 10.082031 0 20.550781-.601562 31.226563-2.011719 0 .097657-.003906.199219-.007813.296876-.257812 12.160156.066407 24.738281.921875 37.039062l-97.796875-8.769531c-3.574219-.320313-6.730469 2.316406-7.050781 5.894531v.003906c-.320312 3.574219 2.316406 6.730469 5.890625 7.050782l49.894531 4.472656c4.972656 22.472656 11.425782 41.9375 18.324219 55.191406l13.789063 26.453125c2.988281 5.753906 7.40625 10.460937 12.644531 13.851563 3.761719 16.582031 16.550781 28.238281 30.863281 28.238281 1.089844 0 2.1875-.066407 3.289062-.207031l11.695313-1.453126c5.578125 6.988282 13.484375 11.3125 22.273437 11.3125h31.550782c4.003906 0 7.25-3.242187 7.25-7.246093 0-2.90625-1.777344-5.566407-4.519532-6.53125-7.550781-2.652344-13.132812-11.792969-13.132812-22.632813v-.042968c.550781-.65625 1.085938-1.332032 1.597656-2.035157 7.082032-9.757812 9.0625-22.398437 5.320313-33.78125l-.257813-.796875c-3.121094-9.933594-4.667968-29.265625-4.589844-48.113281l23.394532 2.097656c3.574218.316407 6.734375-2.320312 7.054687-5.894531.320313-3.578125-2.316406-6.734375-5.894531-7.058594l-24.230469-2.167968c.550781-11.847657 1.804688-22.496094 3.777344-29.15625.519531-1.75 1.042969-3.535157 1.570313-5.355469l21.992187 1.96875c3.574219.320312 6.734375-2.316407 7.054687-5.890625.320313-3.578125-2.316406-6.734375-5.894531-7.058594l-19.550781-1.75c6.644531-24.191406 12.804688-51.003906 12.804688-67.234375v-19.457031c0-29.121094-11.339844-56.503906-31.9375-77.109375-20.601563-20.589844-47.984376-31.933594-77.101563-31.933594l-.332031.007813c-2.546875.132812-62.65625 3.265624-92.742188 9.847656l-13.726562 2.425781c-26.925782 4.765625-58.863282 3.527344-94.941406-3.675781-7.464844-1.484375-15.234376-2.632813-23.101563-3.402344-7.625-.738281-15.453125-1.128906-23.296875-1.160156-50.589844 0-91.75 38.203125-91.75 85.160156 0 .769531.0117188 1.539062.03125 2.34375l.0078125.140625c.0195313.582031.0390625 1.164063.0703125 1.734375.097656 1.851562.261719 3.722656.484375 5.519531.089844.75.195312 1.488281.304688 2.210938.121093.808593.25 1.613281.402343 2.410156.0625.355469.128907.707031.195313 1.0625l.023437.113281c.066407.347656.144531.695313.222657 1.042969.082031.402344.164062.808594.265624 1.210937.402344 1.777344.871094 3.542969 1.378907 5.199219.140625.484375.292969.964844.4375 1.429688.191406.597656.390625 1.195312.570312 1.695312.871094 2.511719 1.875 5.007813 2.996094 7.421875.1875.4375.390625.863282.601563 1.292969 1.183593 2.441406 2.480468 4.824219 3.820312 7.007813.265625.445312.542969.886718.859375 1.382812 1.398437 2.214844 2.945313 4.410156 4.601563 6.527344.296874.398437.601562.785156.886718 1.136718 2.09375 2.601563 4.339844 5.09375 6.648438 7.371094.355468.355469.726562.714844 1.035156 1.003906 1.226562 1.183594 2.542969 2.375 3.839844 3.472657.402344.347656.8125.695312 1.226562 1.027343.125.109376.25.214844.382813.3125.367187.308594.738281.605469 1.117187.898438.945313.75 1.949219 1.507812 3.039063 2.292969.535156.390625 1.082031.773437 1.597656 1.121093.441406.308594.886719.613282 1.273437.867188.4375.292969.871094.582031 1.316407.859375.453125.296875.917969.589844 1.382812.875.085938.050781.171875.101563.253907.152344l-17.742188-1.589844c-3.574219-.320313-6.734375 2.316406-7.054688 5.894531-.320312 3.574219 2.320313 6.730469 5.894532 7.054688l101.042968 9.058594c.097657.429687.191407.871093.292969 1.324218.121094.539063.234375 1.089844.351563 1.640625l.125.632813c.101562.484375.195312.964844.292968 1.445312l.03125.164063c.222657 1.09375.433594 2.183593.644532 3.3125l.0625.324219c.082031.433593.164062.863281.238281 1.300781l.042969.242187c.019531.070313.035156.144532.046875.222656l.042969.242188c.109374.585938.210937 1.179688.316406 1.8125l.5625 3.265625c.144531.878906.289062 1.769531.433594 2.710937.195312 1.261719.394531 2.523438.582031 3.800782.265625 1.792968.519531 3.597656.765625 5.382812l.015625.121094c.132812 1.007812.261719 2.007812.386719 3.015625l.015624.117187c.101563.734376.195313 1.46875.277344 2.203126l.027344.222656c.027344.183594.046875.371094.070312.5625l.160157 1.4375-109.933594-9.859375c-3.578125-.320313-6.734375 2.316406-7.054687 5.894531-.320313 3.570312 2.316406 6.726562 5.894531 7.050781zm108.097656 127.363281c-7.375 0-13.847656-6.269531-16.4375-14.996093 3.273437.828125 6.664063 1.265625 10.09375 1.265625 5.769531 0 11.398437-1.183594 16.597656-3.464844 1.503907 2.648438 3.300781 5.148438 5.382813 7.433594 1.933594 2.117187 4.074218 4.011718 6.371094 5.667968.054687 1.386719.179687 2.753907.359374 4.09375zm52.605469 17.46875c-7.375 0-13.84375-6.261718-16.4375-14.980468 3.277344.824218 6.660156 1.261718 10.089844 1.261718 5.171874 0 10.273437-.984374 15.046874-2.84375 1 6.226563 3.335938 11.894532 6.644532 16.5625zm155.585937-44.742187-13.785156-26.457031c-5.988281-11.503906-11.671875-28.316406-16.25-47.964844l36.589844 3.277344c.058593.5625.109375 1.136718.167969 1.699218.101562.933594.207031 1.859376.316406 2.796876l.042968.378906c.167969 1.464844.347657 2.910156.535157 4.347656l.042969.335938c.128906 1.015624.269531 2.011718.421874 3.109374.140626 1.019532.292969 2.050782.449219 3.085938.152344 1.015625.308594 2.019531.480469 3.089844l.230469 1.421875c.167969 1 .339843 2 .515625 2.964843.171875.992188.351562 1.96875.535156 2.941407.367188 1.925781.75 3.832031 1.140625 5.667969.1875.886718.378906 1.75.582031 2.617187l.039063.171875c.203125.914062.421875 1.816406.636719 2.699219.101562.445312.214843.886719.332031 1.351562.226562.925781.460937 1.839844.695312 2.679688 1.1875 4.433593 2.480469 8.542969 3.847657 12.226562l10.40625 27.957031c.164062.4375.359374.855469.535156 1.28125-1.34375.429688-2.730469.75-4.164063.941407l-.257812.03125c-9.835938 1.222656-19.511719-3.863281-24.085938-12.652344zm33.660157 34.984375c-6.246094.78125-12.398438-3.054688-16.339844-9.378906 1.28125.136718 2.574218.226562 3.875.226562 1.351562 0 2.710937-.074218 4.074218-.226562l.429688-.050782c3.523438-.4375 6.886719-1.355468 10.0625-2.726562.964844 1.019531 1.984375 1.980469 3.054688 2.878906.292968 2.933594.875 5.753906 1.707031 8.421875zm35.578124 9.757812c-6.292968 0-11.921874-4.558593-15.050781-11.3125 2.660157.621094 5.410157.957032 8.214844.964844h.089844c5.648437 0 11.054687-1.285156 15.933593-3.671875 1.171876 5.226563 3.300782 9.996094 6.152344 14.019531zm-385.941406-252.128906c0 .617188.03125 1.226563.054688 1.839844-.382813-.953125-.746094-1.917969-1.089844-2.910156-.148438-.410156-.289062-.832032-.429688-1.273438-.125-.398437-.253906-.796875-.386718-1.25-.4375-1.433594-.828125-2.921875-1.167969-4.414062l-.046875-.203125c-.058594-.214844-.097656-.433594-.148438-.699219l-.035156-.15625c-.054687-.246094-.113281-.492188-.15625-.71875l-.019531-.101562c-.050781-.269532-.105469-.542969-.148437-.8125l-.03125-.167969c-.121094-.636719-.226563-1.285157-.324219-1.945313-.089844-.601562-.183594-1.203125-.257813-1.855468-.191406-1.535157-.328125-3.097657-.410156-4.636719-.027344-.496094-.042969-1-.0625-1.507813l-.003906-.097656c-.015625-.640625-.023438-1.289062-.023438-1.9375 0-39.789062 35.324219-72.160156 78.722656-72.160156 7.417969.03125 14.84375.398437 22.0625 1.097656 7.433594.730469 14.773438 1.8125 21.820313 3.214844 37.664063 7.523437 71.222656 8.777344 99.746094 3.730468l13.859375-2.449218.261718-.054688c28.246094-6.203125 87.019532-9.390625 90.582032-9.578125 25.585937.042969 49.640625 10.03125 67.746094 28.125 18.140624 18.148438 28.128906 42.265625 28.128906 67.914063v19.460937c0 14.734375-6.195313 43.722657-17.441406 81.625-6.441407 21.726563-6.132813 76.617188.5625 97.929688l.285156.875c2.488281 7.578125 1.222656 15.644531-3.480469 22.125-4.511719 6.214843-11.421875 9.777343-18.972656 9.777343-.019531 0-.039063 0-.058594 0-9.878906-.023437-18.828125-6.265624-22.273437-15.53125l-10.40625-27.949218c-1.222657-3.300782-2.394532-7.019532-3.492188-11.113282-.210938-.769531-.414062-1.554687-.609375-2.351562l-.035156-.148438c-.089844-.34375-.175781-.6875-.257813-1.042968l-.023437-.105469c-.148438-.597656-.292969-1.207031-.4375-1.820313l-.171875-.769531c-.199219-.835937-.386719-1.675781-.570313-2.558593-.382812-1.777344-.742187-3.589844-1.09375-5.421876-.175781-.910156-.339843-1.832031-.503906-2.773437-.167969-.921875-.332031-1.863281-.480469-2.773437l-.242187-1.5c-.15625-.957032-.304688-1.910157-.449219-2.859376-.144531-.980468-.292969-1.972656-.441406-3.039062-.113282-.820312-.226563-1.632812-.335938-2.457031l-.054687-.445313c-.179688-1.367187-.351563-2.746094-.515625-4.140625l-.046875-.386719c-.113281-1-.230469-2.003906-.339844-3.03125-1.761719-16.300781-2.503906-33.671874-2.152344-50.257812.019531-1.121094.046875-2.234375.085938-3.347656l.003906-.175782c.039063-1.1875.074219-2.375.132813-3.589843.546874-13.140625 1.84375-24.949219 3.742187-34.15625l6.398437-30.984375c.726563-3.515625-1.535156-6.953125-5.050781-7.679688h-.007812c-3.515625-.726562-6.953125 1.535156-7.675781 5.050782l-2.011719 9.730468c-8.53125-14.375-20.117188-21.214844-27.570313-24.308594-2.726562-1.128906-6.917968-2.132812-10.496094-2.859374-3.683593-.75-7.242187 1.738281-7.761718 5.464843-.476563 3.402344 1.777344 6.589844 5.144531 7.265625 2.949219.59375 6.261719 1.363282 8.132813 2.140625 9.734374 4.039063 22.371093 13.402344 27.871093 35.023438-1.585937 8.140625-2.742187 17.9375-3.390625 28.671875-59.046875 8.441406-113.320312-10.199219-126.503906-15.222656-.035156-.183594-.070312-.378907-.105469-.566407-.214843-1.046875-.429687-2.074219-.648437-3.117187-.320313-1.457032-.480469-2.945313-.480469-4.425782 0-4.523437 1.519531-9.007812 4.277344-12.613281l5.097656-6.652343c2.183594-2.847657 1.644531-6.929688-1.207031-9.109376v-.003906c-2.851563-2.183594-6.929688-1.644531-9.109375 1.207032l-5.105469 6.65625c-4.484375 5.867187-6.953125 13.152343-6.953125 20.519531 0 2.410156.261719 4.832031.769531 7.15625.207032.976562.414063 1.96875.613282 2.945312 1.390624 7.023438 2.558593 15.199219 3.46875 24.292969l.019531.195312c.011719.117188.023437.238282.035156.355469.113281 1.113281.21875 2.242188.324219 3.472657.085937.859374.160156 1.734374.226562 2.605468l.023438.230469c.019531.179687.03125.363281.050781.628906.117187 1.417969.226563 2.855469.324219 4.304688l.011718.164062c.011719.109375.023438.226563.027344.339844l.011719.148437c.085937 1.273438.175781 2.546876.257813 3.851563.058593.902344.105468 1.816406.15625 2.78125.050781.792969.085937 1.59375.128906 2.472656.046875.78125.085937 1.5625.113281 2.339844l.007813.109375c.066406 1.277344.113281 2.5625.164062 3.855469.171875 4.46875.289062 8.902343.34375 13.203125.03125 1.621094.039062 3.242187.050781 4.855468v.242188c.144531 28.066406-1.808593 54.386719-5.347656 72.175781l-.117187.570313c-1.28125 6.433594-4.785157 12.273437-9.851563 16.433594-5.085937 4.164062-11.496094 6.457031-18.050781 6.457031-8.097656 0-15.5625-3.292969-21.019532-9.277344-5.460937-5.984375-8.0625-13.722656-7.316406-21.816406l.570313-6.546875c.710937-8.234375 1.035156-17.914063.960937-28.824219l-.019531-2.1875c-.007813-1.195313-.03125-2.402344-.058594-3.574219l-.003906-.160156c-.011719-.550781-.019531-1.101562-.039063-1.648438-.011718-.710937-.027343-1.421874-.050781-2.148437-.050781-1.710937-.101562-3.425781-.171875-5.144531-.089844-2.453125-.203125-4.949219-.335937-7.476563l-.046875-.871093c-.03125-.597657-.0625-1.191407-.105469-1.785157-.050781-1.074219-.121094-2.160156-.1875-3.207031-.058594-.953125-.121094-1.910156-.1875-2.867188l-.019531-.269531c-.160156-2.289062-.332032-4.574219-.523438-6.851562-.082031-1.042969-.164062-2.082031-.265625-3.125-.101562-1.273438-.222656-2.554688-.34375-3.847657-.183593-1.902343-.375-3.816406-.582031-5.75l-.757812-6.65625c-.035157-.328124-.070313-.640624-.113282-.957031-.089844-.792969-.191406-1.582031-.300781-2.375-.125-1.03125-.261719-2.054687-.398437-3.085937l-.019532-.148438c-.253906-1.867187-.515625-3.722656-.789062-5.5625-.191406-1.308594-.394532-2.609375-.59375-3.867187-.144532-.960938-.300782-1.910157-.460938-2.894531l-.566406-3.300782c-.109375-.660156-.226562-1.3125-.347656-1.957031-.035156-.230469-.082032-.464844-.128906-.691406-.082032-.46875-.167969-.933594-.257813-1.402344l-.054687-.289063c-.214844-1.175781-.445313-2.34375-.675782-3.476562l-.023437-.128906c-.109375-.550782-.21875-1.105469-.324219-1.59375l-.121094-.613282c-.128906-.621093-.257812-1.242187-.386718-1.820312-.191407-.878906-.386719-1.75-.558594-2.523438-.046875-.214843-.09375-.421874-.140625-.632812l-.109375-.484375c-.179688-.769531-.355469-1.539063-.53125-2.25-.691406-2.898437-1.429688-5.691406-2.195313-8.378906 19.84375-11.4375 32.9375-30.898438 32.9375-52.9375 0-1.144531-.050781-2.289063-.125-3.433594.082031-2.066406-.128906-4.167969-.667969-6.246094l-.226562-.878906c-.535156-2.828125-1.277344-5.628906-2.191406-8.375-.183594-.609375-.386719-1.210937-.617188-1.796875-7.183594-19.75-23.40625-36.121094-39.410156-36.78125-6.773438-.273438-11.542969 2.210938-15.753906 4.40625-4.226563 2.203125-7.878906 4.105469-14.269532 4.105469-.050781 0-.101562 0-.148437 0-6.546875-.027344-10.238281-2.019531-14.519531-4.328125-4.0625-2.1875-8.648438-4.660156-15.078125-4.660156-.21875 0-.441407.003906-.667969.007812-22.007812.570312-44.433594 29.832031-44.433594 57.972656zm129.054688-2.371094c-1.140625-2.351562-3.738282-3.75-6.328125-3.402343-3.421875.460937-5.636719 3.46875-5.382813 6.628906l-3.484375-1.460937c-2.851562-1.195313-4.996093-3.773438-5.34375-6.847657-.390625-3.429687 1.183594-6.539062 4.136719-8.238281l7.601562-4.378906c1.296876-.75 2.730469-1.125 4.171876-1.125 1.433593 0 2.875.375 4.199218 1.128906 2.019532 1.148438 3.398438 3.164062 3.980469 5.414062l1.8125 7.003907c.246094 1.386719.425781 2.78125.542969 4.183593-.199219 2.082032-1.171875 4.015626-2.851563 5.472657-1.039062.898437-2.222656 1.492187-3.464843 1.804687 1.167968-1.746094 1.441406-4.0625.410156-6.183594zm-115.148438-4.316406 2.132813-8.230468c0-.777344.234375-1.539063.683593-2.175782 1.953126-2.753906 4.699219-4.101562 7.429688-4.101562 1.4375 0 2.871094.375 4.167969 1.121094l7.351562 4.234374c2.675781 1.542969 4.484375 4.367188 4.445313 7.460938-.042969 3.453125-1.992188 6.339844-5.132813 7.65625l-2.90625 1.222656c.027344-1.195312-.28125-2.429687-1.042969-3.582031-1.257812-1.898437-3.542968-2.972656-5.804687-2.707031-3.96875.464844-6.359375 4.335937-5.246094 7.96875.207031.671875.519531 1.277344.910157 1.8125-1.71875-.214844-3.355469-.960938-4.722657-2.25-2.261719-2.136719-3.042969-5.417969-2.265625-8.429688zm63.726563 29.011719c-1.175781 1.542969-2.746094 1.773437-3.578125 1.773437-.832032 0-2.402344-.230468-3.574219-1.773437-1.527344-2.003906-.824219-3.964844-.453125-4.71875s1.511719-2.5 4.027344-2.5c2.519531 0 3.65625 1.746094 4.027344 2.5.375.753906 1.074218 2.714844-.449219 4.71875zm2.921875 28.070313v-14.539063c2.898437-1.15625 5.460937-3.078125 7.421875-5.652344 4.425781-5.816406 4.824219-13.664062.851562-19.980469-2.851562-4.539062-7.742187-7.539062-13.082031-8.039062-7.949219-.738281-15.222656 3.789062-18.066406 11.257812-1.90625 5.007813-1.371094 10.71875 1.441406 15.277344 2.046875 3.328125 5.007812 5.769532 8.433594 7.136719v13.210937c-4.636719-.347656-9.222656-1.0625-13.695313-2.148437l-.140625-.035156c-.300781-.0625-.601562-.136719-.894531-.21875l-.246094-.0625c-.171875-.042969-.347656-.082031-.519531-.136719l-.265625-.078125c-1.566406-.414063-3.160156-.894531-4.734375-1.425781l-.128906-.039063c-.457032-.144531-.90625-.308593-1.367188-.472656-.394531-.140625-.78125-.28125-1.261718-.464844l-.164063-.0625c-.316406-.117187-.632813-.230469-.941406-.359375l-.179688-.074218c-.40625-.15625-.8125-.316407-1.238281-.496094-11.832031-6.144532-20.949219-15.550782-25.523438-26.699219 1.839844.511719 3.738282.773437 5.648438.773437 2.796875 0 5.617188-.554687 8.3125-1.683593l9.371094-3.933594c7.101562-2.984375 12.335937-9.40625 13.339844-17.042969 1.148437-8.726562-2.988282-17.03125-10.515626-21.363281l-7.601562-4.378906c-2.605469-1.503907-5.429688-2.414063-8.308594-2.734375 5.738282-6.535156 12.433594-10.761719 18.28125-10.914063.113282-.003906.222656-.003906.332032-.003906 2.996093 0 5.152343 1.085937 8.902343 3.105469 4.824219 2.601562 10.832031 5.839844 20.625 5.886718h.207031c9.578126 0 15.511719-3.09375 20.28125-5.582031 3.882813-2.023437 6.046876-3.074219 9.207032-2.945312 5.527344.230469 11.84375 4.273437 17.3125 10.503906-2.730469.363281-5.40625 1.257813-7.882813 2.683594l-7.199219 4.144531c-6.675781 3.847656-11.066406 10.875-11.109374 18.578125-.046876 8.796875 5.097656 16.519531 13.101562 19.878906l9.800781 4.113281c2.695313 1.132813 5.515625 1.6875 8.3125 1.6875 1.734375 0 3.457031-.230468 5.136719-.648437-7.5625 18.273437-27.367188 31.867187-51.253906 33.976563zm0 0"></path></svg>